<svg id="Calque_1" data-name="Calque 1" xmlns="http://www.w3.org/2000/svg" viewBox="0 0 900.63 126.12"><defs><style>.cls-1{fill:#004842;}</style></defs><title>bouton_bas</title><path class="cls-1" d="M825.85,43.95H74.79a16.14,16.14,0,0,0-4.45.67A20.07,20.07,0,0,0,66,46.44a18.86,18.86,0,0,0-3.71,2.73,13.2,13.2,0,0,0-2.61,3.38L27.44,114.35a11.47,11.47,0,0,0-1.36,4.5,6.8,6.8,0,0,0,.76,3.75,6.21,6.21,0,0,0,2.7,2.56,9.77,9.77,0,0,0,4.44.95H866.66a9.78,9.78,0,0,0,4.44-.95,6.21,6.21,0,0,0,2.7-2.56,6.8,6.8,0,0,0,.76-3.75,11.46,11.46,0,0,0-1.36-4.5L840.93,52.54a13.16,13.16,0,0,0-2.61-3.38,18.85,18.85,0,0,0-3.71-2.73,20.12,20.12,0,0,0-4.31-1.82,16.15,16.15,0,0,0-4.45-.67"/></svg>